<?xml version="1.0" standalone="no"?>
<!DOCTYPE svg PUBLIC "-//W3C//DTD SVG 20010904//EN"
 "http://www.w3.org/TR/2001/REC-SVG-20010904/DTD/svg10.dtd">
<svg version="1.0" xmlns="http://www.w3.org/2000/svg"
 width="300.000000pt" height="300.000000pt" viewBox="0 0 300.000000 300.000000"
 preserveAspectRatio="xMidYMid meet">
<metadata>
Created by potrace 1.10, written by Peter Selinger 2001-2011
</metadata>
<g transform="translate(0.000000,300.000000) scale(0.100000,-0.100000)"
fill="#000000" stroke="none">
<path d="M1217 2342 c-32 -9 -56 -21 -54 -27 3 -5 17 -55 32 -110 16 -55 29
-101 31 -103 1 -2 33 6 71 17 77 23 103 44 103 84 0 24 -22 57 -39 57 -4 0 -6
14 -3 30 6 38 -21 70 -57 69 -14 0 -52 -8 -84 -17z m104 -28 c19 -23 1 -46
-52 -65 l-44 -17 -13 36 c-6 19 -11 36 -10 38 5 4 73 22 89 23 9 1 22 -6 30
-15z m30 -84 c22 -12 25 -43 7 -57 -7 -6 -34 -17 -60 -26 -46 -15 -46 -15 -52
8 -3 13 -9 30 -12 38 -4 12 7 19 43 30 26 8 49 15 51 16 2 1 12 -4 23 -9z"/>
<path d="M1448 2323 c-10 -2 -18 -10 -18 -18 0 -9 15 -12 53 -11 47 1 52 -1
55 -21 3 -21 -1 -23 -42 -23 -68 0 -100 -45 -58 -83 20 -19 77 -23 87 -7 3 6
11 10 16 10 6 0 7 -4 4 -10 -3 -5 2 -10 13 -10 17 0 18 7 16 72 -1 61 -5 75
-24 90 -21 17 -63 21 -102 11z m92 -113 c0 -26 -43 -44 -71 -30 -36 20 -13 50
38 50 26 0 33 -4 33 -20z"/>
<path d="M1822 2212 c-40 -70 -57 -110 -51 -117 7 -7 16 -3 27 11 9 12 27 25
38 28 23 7 34 -13 34 -64 0 -26 16 -50 33 -50 8 0 6 25 -9 102 -5 24 -2 27 33
33 21 3 45 10 52 14 28 18 -28 22 -85 7 -32 -8 -59 -14 -60 -13 -1 1 15 31 36
67 45 74 45 76 26 83 -10 4 -33 -27 -74 -101z"/>
<path d="M1635 2275 c-50 -49 -20 -137 49 -151 36 -6 81 10 71 27 -4 5 -22 7
-40 3 -26 -4 -38 -1 -54 15 -25 25 -27 49 -5 79 18 26 65 30 88 6 9 -8 24 -14
34 -12 15 3 13 7 -10 31 -37 37 -98 38 -133 2z"/>
<path d="M814 2088 c-4 -7 1 -17 12 -24 61 -41 61 -42 32 -53 -79 -30 -56
-153 32 -167 44 -7 85 22 95 67 4 17 9 28 13 25 3 -3 11 -1 19 5 10 9 -8 27
-86 85 -55 41 -102 74 -105 74 -2 0 -8 -5 -12 -12z m120 -109 c31 -25 34 -61
6 -89 -25 -25 -41 -25 -74 1 -31 25 -34 61 -6 89 25 25 41 25 74 -1z"/>
<path d="M1964 2079 c-8 -13 55 -71 68 -63 15 9 8 22 -26 48 -24 18 -37 23
-42 15z"/>
<path d="M1092 2048 c2 -13 10 -23 18 -23 8 0 16 10 18 23 3 17 -2 22 -18 22
-16 0 -21 -5 -18 -22z"/>
<path d="M2087 2001 l-96 -67 45 -65 c25 -35 49 -65 54 -67 23 -8 16 20 -15
64 -19 27 -35 52 -35 56 0 4 13 16 29 27 l28 20 32 -49 c21 -33 37 -47 47 -43
11 4 7 16 -21 55 l-36 49 23 19 c13 11 28 19 33 19 6 1 25 -22 43 -49 31 -48
46 -59 55 -42 3 4 -17 37 -43 74 l-47 67 -96 -68z"/>
<path d="M747 1828 c-22 -17 -37 -61 -30 -87 4 -15 1 -21 -8 -19 -8 2 -14 -3
-14 -11 0 -19 157 -74 167 -58 10 17 3 23 -46 37 -56 16 -81 41 -72 74 10 42
38 49 96 26 62 -24 72 -25 68 -3 -2 9 -24 24 -53 34 -61 21 -86 23 -108 7z"/>
<path d="M2163 1804 c-54 -19 -70 -29 -66 -40 3 -9 12 -13 22 -9 44 17 100 28
115 22 9 -4 21 -18 28 -32 15 -34 -9 -60 -73 -76 -37 -10 -49 -17 -49 -32 0
-11 5 -17 13 -15 6 3 36 13 65 22 63 21 87 51 77 96 -4 16 -16 37 -28 45 -12
8 -16 15 -9 15 6 0 12 7 12 15 0 20 -22 18 -107 -11z"/>
<path d="M616 1584 c-3 -26 -6 -61 -6 -79 0 -40 9 -43 140 -46 l95 -2 3 87 c2
72 0 86 -13 86 -12 0 -15 -14 -15 -70 l0 -70 -41 0 -42 0 7 60 c6 50 4 60 -8
60 -11 0 -17 -16 -22 -58 l-6 -58 -35 4 -35 4 7 64 c5 52 4 64 -8 64 -9 0 -16
-16 -21 -46z"/>
<path d="M2175 1585 c-29 -29 -33 -79 -8 -107 15 -17 15 -18 0 -18 -10 0 -17
-7 -17 -15 0 -13 21 -15 125 -15 116 0 125 1 125 19 0 16 -6 18 -45 13 -42 -4
-60 7 -35 23 6 3 10 22 10 41 0 50 -37 84 -90 84 -30 0 -47 -6 -65 -25z m109
-24 c25 -28 17 -72 -16 -91 -25 -13 -31 -13 -55 0 -54 30 -34 110 27 110 15 0
35 -9 44 -19z"/>
<path d="M751 1373 c5 -21 9 -41 9 -45 0 -5 7 -8 16 -8 12 0 15 6 10 23 -3 12
-6 32 -6 45 0 15 -6 22 -19 22 -17 0 -18 -4 -10 -37z"/>
<path d="M845 1321 c-4 -7 -1 -19 6 -27 15 -18 -1 -36 -46 -52 -16 -5 -37 -13
-46 -17 -12 -4 -18 1 -23 20 -4 15 -12 24 -19 22 -12 -5 -13 -11 -2 -39 4 -11
0 -18 -14 -23 -12 -4 -18 -12 -14 -21 3 -9 12 -12 24 -9 12 4 21 1 25 -9 8
-20 33 -9 27 12 -3 13 7 21 43 31 59 18 87 44 78 74 -9 32 -30 52 -39 38z"/>
<path d="M2124 1315 c-4 -9 -2 -21 4 -27 15 -15 44 -1 40 19 -4 23 -36 29 -44
8z"/>
<path d="M850 1167 c-68 -53 -77 -91 -33 -134 15 -16 26 -33 25 -40 -6 -28 21
-20 85 24 37 25 70 48 72 50 3 2 0 8 -7 15 -8 8 -23 3 -58 -21 -55 -36 -74
-38 -97 -13 -31 34 -21 59 38 98 44 29 53 40 44 50 -6 8 -12 14 -13 14 0 -1
-26 -20 -56 -43z"/>
<path d="M2077 1183 c-13 -12 -7 -19 59 -67 36 -27 64 -50 62 -51 -2 -2 -38 2
-80 8 -43 6 -80 8 -83 5 -3 -3 4 -30 16 -59 41 -103 40 -101 26 -93 -6 4 -35
27 -64 52 -46 38 -73 47 -73 23 0 -4 40 -39 89 -78 57 -46 93 -67 99 -61 6 6
-3 40 -24 95 -19 48 -33 88 -31 90 2 1 43 -2 91 -9 64 -8 90 -8 98 0 7 7 10
13 7 15 -74 58 -178 137 -181 137 -3 0 -8 -3 -11 -7z"/>
<path d="M956 989 c-35 -41 -34 -83 3 -120 50 -50 124 -35 151 31 24 59 -22
120 -91 120 -29 0 -43 -7 -63 -31z m105 -9 c12 -7 19 -21 19 -42 0 -61 -59
-89 -100 -48 -52 52 14 125 81 90z"/>
<path d="M1833 938 c-35 -22 -63 -44 -63 -48 0 -21 20 -16 69 16 29 20 54 34
55 32 1 -2 25 -38 52 -81 53 -86 61 -94 76 -79 6 6 -12 42 -52 103 -34 52 -65
95 -68 96 -4 1 -35 -16 -69 -39z"/>
<path d="M1185 871 c-24 -55 -48 -75 -79 -67 -28 7 -46 -11 -25 -25 8 -5 24
-7 36 -4 16 4 21 1 17 -9 -3 -7 1 -16 9 -19 9 -3 25 18 49 66 42 85 43 91 25
95 -8 2 -21 -14 -32 -37z"/>
<path d="M1377 852 c-3 -4 -8 -24 -11 -46 -7 -38 -8 -38 -44 -31 -58 11 -85
11 -89 -1 -2 -7 21 -16 57 -24 51 -11 60 -16 55 -31 -19 -70 -9 -64 -85 -44
-41 11 -56 11 -62 2 -4 -6 -5 -13 -4 -15 4 -3 161 -41 161 -39 1 1 12 47 25
102 14 55 26 105 28 111 3 13 -25 27 -31 16z"/>
<path d="M1584 845 c-7 -18 3 -35 21 -35 21 0 28 19 15 35 -16 19 -29 19 -36
0z"/>
</g>
</svg>
