<?xml version="1.0" standalone="no"?>
<!DOCTYPE svg PUBLIC "-//W3C//DTD SVG 20010904//EN"
 "http://www.w3.org/TR/2001/REC-SVG-20010904/DTD/svg10.dtd">
<svg version="1.0" xmlns="http://www.w3.org/2000/svg"
 width="300.000000pt" height="300.000000pt" viewBox="0 0 300.000000 300.000000"
 preserveAspectRatio="xMidYMid meet">
<metadata>
Created by potrace 1.10, written by Peter Selinger 2001-2011
</metadata>
<g transform="translate(0.000000,300.000000) scale(0.100000,-0.100000)"
fill="#000000" stroke="none">
<path d="M1220 2343 c-30 -9 -56 -17 -58 -18 -1 -1 2 -15 7 -31 5 -16 19 -65
32 -109 12 -44 24 -81 25 -83 6 -9 143 40 157 56 24 27 21 67 -7 89 -18 14
-22 26 -19 50 4 24 0 34 -18 47 -28 19 -47 19 -119 -1z m101 -29 c19 -23 1
-46 -52 -65 l-44 -17 -13 36 c-6 19 -11 36 -10 37 2 1 17 7 33 13 44 15 71 14
86 -4z m44 -114 c0 -26 -27 -45 -83 -56 -26 -5 -31 -3 -41 27 -6 18 -10 34 -8
35 12 12 59 23 92 21 35 -2 40 -5 40 -27z"/>
<path d="M1448 2319 c-31 -18 -19 -27 35 -25 46 1 52 -1 55 -21 3 -20 -2 -22
-50 -25 -47 -3 -54 -6 -62 -30 -8 -22 -6 -32 9 -48 16 -17 28 -20 78 -17 l60
3 -2 70 c-1 56 -6 72 -23 87 -22 19 -73 22 -100 6z m92 -109 c0 -26 -43 -44
-71 -30 -19 11 -25 31 -12 43 3 4 24 7 45 7 31 0 38 -3 38 -20z"/>
<path d="M1821 2212 c-45 -81 -57 -110 -48 -120 8 -11 13 -8 24 12 8 14 18 26
23 26 4 0 15 3 24 6 12 5 16 -5 22 -45 4 -31 14 -57 27 -68 22 -20 22 -28 1
91 -6 34 -5 35 33 41 55 9 65 14 58 25 -9 14 -42 12 -99 -5 -55 -17 -66 -14
-44 12 13 16 68 111 68 118 0 2 -6 5 -14 8 -11 4 -32 -25 -75 -101z"/>
<path d="M1635 2275 c-70 -69 20 -191 106 -144 29 15 12 31 -26 23 -26 -4 -38
-1 -54 15 -25 25 -27 49 -5 79 21 30 70 30 94 0 18 -22 19 -22 26 -4 20 52
-96 77 -141 31z"/>
<path d="M1965 2080 c-11 -17 55 -74 68 -61 8 8 5 16 -9 28 -44 40 -52 44 -59
33z"/>
<path d="M2134 2037 c-23 -18 -64 -48 -92 -67 l-51 -35 45 -65 c25 -36 50 -65
57 -65 18 0 11 19 -25 70 l-32 46 29 23 30 24 32 -49 c23 -33 38 -46 48 -43
12 5 8 16 -21 57 l-36 50 23 18 c30 23 46 24 54 2 10 -32 61 -86 73 -79 8 5
-4 30 -36 76 -26 38 -49 69 -52 69 -3 0 -23 -14 -46 -32z"/>
<path d="M751 2007 c-9 -11 -1 -19 34 -37 l45 -23 -29 -18 c-59 -36 -48 -125
17 -150 60 -23 122 15 122 76 0 15 5 24 13 23 29 -6 8 28 -33 52 -149 87 -157
90 -169 77z m146 -109 c28 -26 29 -38 2 -72 -25 -31 -47 -33 -83 -5 -30 23
-33 45 -10 77 20 28 61 29 91 0z"/>
<path d="M1025 2010 c-9 -15 14 -40 31 -33 22 8 18 43 -5 43 -11 0 -23 -5 -26
-10z"/>
<path d="M2163 1804 c-54 -19 -70 -29 -66 -40 3 -9 12 -13 22 -9 44 17 100 28
115 22 9 -4 21 -18 28 -32 16 -34 -9 -60 -73 -75 -38 -9 -49 -16 -49 -32 0
-12 5 -18 13 -16 6 3 36 13 65 22 63 21 87 51 77 96 -4 16 -16 37 -28 45 -12
8 -16 15 -9 15 6 0 12 7 12 15 0 20 -22 18 -107 -11z"/>
<path d="M705 1726 c-11 -16 -16 -39 -13 -61 2 -22 -1 -36 -9 -39 -29 -11 -9
-23 65 -39 94 -20 102 -21 102 -4 0 8 -21 19 -52 26 -63 14 -78 26 -78 61 0
51 22 57 128 34 25 -5 32 -3 32 9 0 19 -21 27 -96 34 -59 5 -63 4 -79 -21z"/>
<path d="M2176 1585 c-30 -28 -36 -84 -10 -109 14 -15 14 -16 0 -16 -9 0 -16
-7 -16 -15 0 -13 21 -15 125 -15 118 0 125 1 125 20 0 18 -5 19 -45 13 -43 -5
-61 6 -35 22 6 3 10 21 10 39 0 77 -95 115 -154 61z m108 -24 c25 -28 17 -72
-16 -91 -25 -13 -31 -13 -55 0 -54 30 -34 110 27 110 15 0 35 -9 44 -19z"/>
<path d="M816 1480 l7 -70 -42 0 -41 0 0 55 c0 44 -3 55 -16 55 -15 0 -16 -8
-11 -60 l7 -60 -34 0 c-38 0 -46 15 -46 88 0 31 -4 42 -15 42 -17 0 -18 -17
-9 -106 l6 -59 102 6 c55 4 107 7 114 8 24 2 10 171 -15 171 -12 0 -13 -13 -7
-70z"/>
<path d="M764 1313 c3 -10 8 -30 12 -45 6 -28 34 -40 34 -14 0 29 -23 76 -37
76 -9 0 -12 -6 -9 -17z"/>
<path d="M2124 1315 c-7 -18 3 -35 21 -35 18 0 26 15 19 34 -8 20 -33 21 -40
1z"/>
<path d="M865 1240 c-3 -5 -1 -10 4 -10 6 0 11 -10 11 -23 0 -16 -12 -28 -44
-46 -45 -23 -66 -22 -66 5 0 8 -6 14 -13 14 -23 0 -27 -11 -11 -35 13 -20 13
-23 -1 -28 -8 -4 -15 -14 -15 -23 0 -12 6 -15 25 -10 14 4 25 2 25 -4 0 -5 7
-10 16 -10 11 0 13 6 9 20 -5 15 2 23 37 39 24 11 52 29 62 40 16 18 17 24 6
51 -12 30 -33 39 -45 20z"/>
<path d="M892 1094 c-41 -36 -52 -52 -52 -75 0 -32 38 -79 64 -79 9 0 12 -7 9
-20 -8 -29 3 -25 65 27 32 26 61 50 66 54 5 4 6 15 2 24 -5 13 -14 9 -55 -26
-55 -45 -90 -48 -111 -9 -16 30 -5 50 44 89 25 20 42 40 39 48 -8 20 -14 17
-71 -33z"/>
<path d="M2036 1114 c-5 -14 6 -31 48 -69 31 -28 56 -53 56 -56 0 -3 -34 3
-75 14 -41 11 -78 17 -82 13 -6 -6 14 -95 33 -153 4 -10 -21 10 -54 44 -43 45
-65 61 -77 57 -13 -6 1 -25 69 -93 55 -55 89 -82 95 -76 6 7 3 35 -9 80 -11
39 -23 81 -26 94 -6 21 -4 22 17 16 79 -26 165 -42 174 -34 6 6 -22 41 -76 95
-72 72 -87 83 -93 68z"/>
<path d="M1029 941 c-20 -20 -29 -39 -29 -61 0 -22 9 -41 29 -61 60 -59 151
-24 151 58 -1 86 -91 124 -151 64z m103 -18 c38 -34 11 -103 -40 -103 -56 0
-81 61 -42 100 24 24 57 26 82 3z"/>
<path d="M1770 906 c-36 -17 -67 -32 -69 -33 -2 -1 -1 -9 3 -18 5 -13 14 -11
63 14 l58 29 45 -94 c36 -75 48 -92 60 -84 12 8 7 25 -35 110 -28 56 -52 103
-55 105 -3 1 -34 -11 -70 -29z"/>
<path d="M1260 836 c-16 -57 -41 -81 -75 -72 -21 5 -25 3 -25 -15 0 -19 4 -21
34 -16 29 5 34 3 29 -10 -4 -10 -1 -14 11 -12 11 3 26 28 41 69 12 36 26 73
30 83 5 13 2 17 -13 17 -14 0 -22 -11 -32 -44z"/>
<path d="M1584 845 c-7 -18 3 -35 22 -35 20 0 30 30 13 41 -20 12 -29 11 -35
-6z"/>
<path d="M1446 800 c-6 -42 -10 -50 -24 -46 -9 2 -37 8 -60 11 -39 6 -43 5
-40 -11 3 -16 14 -20 62 -22 54 -3 58 -4 52 -25 -3 -12 -6 -33 -6 -46 0 -15
-5 -21 -13 -18 -8 3 -39 8 -70 12 -48 6 -57 5 -57 -8 0 -11 14 -18 48 -22 26
-3 63 -8 83 -11 l37 -5 12 103 c6 57 12 110 13 118 1 8 -5 16 -14 18 -13 2
-18 -8 -23 -48z"/>
</g>
</svg>
